<svg width="136" height="46" viewBox="0 0 136 46" fill="none" xmlns="http://www.w3.org/2000/svg">
<g clip-path="url(#clip0_861_16827)">
<g clip-path="url(#clip1_861_16827)">
<path d="M124.319 0.00390625H11.1244C10.7164 0.00390625 10.3083 0.00390625 9.90033 0.00390625C9.5506 0.00390625 9.20088 0.00390625 8.85115 0.00390625C8.09341 0.00390625 7.33567 0.0621941 6.57792 0.17877C5.87847 0.353633 5.12073 0.586784 4.47956 0.936511C3.78011 1.28624 3.19723 1.69425 2.67264 2.27713C2.08976 2.80172 1.68175 3.3846 1.33202 4.08405C0.982292 4.78351 0.749141 5.48296 0.632565 6.2407C0.51599 6.94016 0.399414 7.6979 0.399414 8.45564C0.399414 8.80537 0.399414 9.15509 0.399414 9.50482V35.5012C0.399414 35.8509 0.399414 36.2006 0.399414 36.5504C0.399414 37.3081 0.457702 38.0659 0.574278 38.8236C0.690853 39.5813 0.924004 40.2808 1.27373 40.9802C1.62346 41.6797 2.08976 42.2626 2.61435 42.7872C3.13894 43.3118 3.78011 43.7781 4.42127 44.1278C5.12073 44.4775 5.82018 44.7107 6.57792 44.8272C7.33567 44.9438 8.09341 45.0021 8.85115 45.0021C9.20088 45.0021 9.5506 45.0021 9.90033 45.0021C10.3083 45.0021 10.7164 45.0021 11.1244 45.0021H124.319C124.727 45.0021 125.135 45.0021 125.543 45.0021C125.893 45.0021 126.243 45.0021 126.593 45.0021C127.35 45.0021 128.108 44.9438 128.866 44.8272C129.624 44.7107 130.323 44.4775 131.022 44.1278C131.722 43.7781 132.305 43.3118 132.829 42.7872C133.354 42.2626 133.82 41.6214 134.17 40.9802C134.52 40.2808 134.753 39.5813 134.869 38.8236C134.986 38.0659 135.044 37.3081 135.103 36.5504C135.103 36.2006 135.103 35.8509 135.103 35.5012C135.103 35.0932 135.103 34.6852 135.103 34.2771V10.7289C135.103 10.3209 135.103 9.91284 135.103 9.50482C135.103 9.15509 135.103 8.80537 135.103 8.45564C135.103 7.6979 135.044 6.94016 134.869 6.18242C134.753 5.42467 134.52 4.72522 134.17 4.02577C133.471 2.68515 132.363 1.57768 131.022 0.878224C130.323 0.528497 129.624 0.295345 128.866 0.17877C128.108 0.0621941 127.35 0.00390625 126.593 0.00390625C126.243 0.00390625 125.893 0.00390625 125.543 0.00390625C125.135 0.00390625 124.727 0.00390625 124.319 0.00390625Z" fill="#A6A6A6"/>
<path d="M9.89998 44.0106C9.55025 44.0106 9.20052 44.0106 8.90908 44.0106C8.20963 44.0106 7.51018 43.9523 6.81072 43.8357C6.16956 43.7191 5.52839 43.5443 4.94551 43.1945C4.36263 42.9031 3.83804 42.4951 3.37174 42.0288C2.90544 41.5625 2.49742 41.0379 2.20598 40.455C1.91454 39.8721 1.68139 39.231 1.62311 38.5898C1.50653 37.8903 1.44824 37.1909 1.44824 36.4914C1.44824 36.2583 1.44824 35.4422 1.44824 35.4422V9.50416C1.44824 9.50416 1.44824 8.74642 1.44824 8.51327C1.44824 7.81382 1.50653 7.11436 1.62311 6.41491C1.73968 5.77374 1.91454 5.13258 2.20598 4.5497C2.49742 3.96682 2.90544 3.44223 3.37174 2.97593C3.83804 2.50962 4.36263 2.10161 4.94551 1.81017C5.52839 1.51873 6.16956 1.28558 6.81072 1.169C7.51018 1.05243 8.20963 0.994141 8.90908 0.994141H9.89998H125.543H126.592C127.292 0.994141 127.991 1.05243 128.691 1.169C129.332 1.28558 129.973 1.46044 130.556 1.81017C131.722 2.39305 132.654 3.38394 133.295 4.5497C133.587 5.13258 133.82 5.77374 133.878 6.41491C133.995 7.11436 134.053 7.81382 134.053 8.51327C134.053 8.80471 134.053 9.15444 134.053 9.50416C134.053 9.91218 134.053 10.3202 134.053 10.7282V34.2765C134.053 34.6845 134.053 35.0925 134.053 35.5005C134.053 35.8503 134.053 36.2 134.053 36.5497C134.053 37.2492 133.995 37.9486 133.878 38.6481C133.762 39.2892 133.587 39.9304 133.295 40.5133C133.004 41.0962 132.596 41.6208 132.13 42.0871C131.663 42.5534 131.139 42.9614 130.556 43.2528C129.973 43.5443 129.332 43.7774 128.691 43.894C127.991 44.0106 127.292 44.0688 126.592 44.0688C126.242 44.0688 125.893 44.0688 125.601 44.0688H124.377L9.89998 44.0106Z" fill="black"/>
<path d="M28.2612 22.8541C28.2612 20.9306 29.3104 19.1819 30.8842 18.191C29.835 16.7338 28.2029 15.8012 26.396 15.7429C24.5308 15.5681 22.6656 16.8504 21.733 16.8504C20.7421 16.8504 19.2849 15.7429 17.6528 15.8012C15.5545 15.8595 13.631 17.0253 12.6401 18.8905C10.4834 22.6792 12.1155 28.2165 14.1555 31.2475C15.2047 32.763 16.4288 34.3951 18.0025 34.3368C19.5763 34.2785 20.1592 33.3459 22.0244 33.3459C23.8896 33.3459 24.4142 34.3368 26.0463 34.2785C27.7366 34.2785 28.7858 32.763 29.7767 31.2475C30.5344 30.1983 31.1173 29.0326 31.467 27.7502C29.5435 26.9342 28.2612 25.0107 28.2612 22.8541Z" fill="white"/>
<path d="M25.1715 13.7608C26.1041 12.6533 26.5121 11.2544 26.4538 9.85547C25.0549 10.0303 23.7726 10.6715 22.84 11.7207C21.9074 12.7699 21.4411 14.1105 21.5576 15.5094C22.9566 15.5094 24.2972 14.8682 25.1715 13.7608Z" fill="white"/>
<path d="M48.0209 30.5461H42.7167L41.4344 34.3348H39.1611L44.2322 20.3457H46.5637L51.6347 34.3348H49.3615L48.0209 30.5461ZM43.2413 28.7974H47.438L45.3396 22.6772H45.2814L43.2413 28.7974Z" fill="white"/>
<path d="M62.4759 29.2066C62.4759 32.3542 60.7855 34.3942 58.2209 34.3942C56.8803 34.4525 55.6562 33.7531 55.015 32.5873H54.9568V37.6584H52.8584V24.1356H54.8985V25.8259H54.9568C55.5979 24.6602 56.8803 23.9607 58.2209 24.019C60.7855 24.019 62.4759 26.0591 62.4759 29.2066ZM60.3192 29.2066C60.3192 27.1665 59.2701 25.7676 57.638 25.7676C56.0642 25.7676 54.9568 27.1665 54.9568 29.2066C54.9568 31.2467 56.0059 32.6456 57.638 32.6456C59.2701 32.6456 60.3192 31.305 60.3192 29.2066Z" fill="white"/>
<path d="M73.6673 29.2066C73.6673 32.3542 71.977 34.3942 69.4123 34.3942C68.0717 34.4525 66.8476 33.7531 66.2065 32.5873H66.1482V37.6584H64.0498V24.1356H66.0899V25.8259H66.1482C66.7893 24.6602 68.0717 23.9607 69.4123 24.019C71.977 24.019 73.6673 26.0591 73.6673 29.2066ZM71.5106 29.2066C71.5106 27.1665 70.4615 25.7676 68.8294 25.7676C67.2556 25.7676 66.1482 27.1665 66.1482 29.2066C66.1482 31.2467 67.1974 32.6456 68.8294 32.6456C70.4615 32.6456 71.5106 31.305 71.5106 29.2066Z" fill="white"/>
<path d="M81.07 30.4302C81.2449 31.8291 82.5855 32.7035 84.3924 32.7035C86.1411 32.7035 87.4234 31.7708 87.4234 30.5468C87.4234 29.4393 86.6657 28.7982 84.8587 28.3902L83.0518 27.9821C80.4872 27.341 79.3214 26.1752 79.3214 24.1934C79.3214 21.8036 81.4198 20.1133 84.3924 20.1133C87.3651 20.1133 89.3469 21.7453 89.4635 24.1934H87.3651C87.2485 22.7945 86.0828 21.9785 84.3924 21.9785C82.7021 21.9785 81.5363 22.8528 81.5363 24.0769C81.5363 25.0677 82.2941 25.6506 84.101 26.1169L85.6165 26.4667C88.4726 27.1661 89.6966 28.2736 89.6966 30.3137C89.6966 32.9366 87.5983 34.5687 84.2759 34.5687C81.1866 34.5687 79.0883 32.9949 78.9717 30.4302H81.07Z" fill="white"/>
<path d="M94.1845 21.7461V24.1359H96.108V25.768H94.1845V31.3636C94.1845 32.2379 94.5925 32.6459 95.4085 32.6459C95.6417 32.6459 95.8748 32.6459 96.108 32.5876V34.2197C95.6999 34.278 95.3502 34.3363 94.9422 34.3363C92.9021 34.3363 92.0861 33.5785 92.0861 31.5967V25.768H90.6289V24.1359H92.0861V21.7461H94.1845Z" fill="white"/>
<path d="M97.2158 29.2068C97.2158 26.001 99.081 23.9609 102.054 23.9609C105.026 23.9609 106.892 26.001 106.892 29.2068C106.892 32.4127 105.026 34.4527 102.054 34.4527C99.081 34.4527 97.2158 32.4127 97.2158 29.2068ZM104.793 29.2068C104.793 26.9919 103.802 25.7096 102.112 25.7096C100.422 25.7096 99.4308 26.9919 99.4308 29.2068C99.4308 31.4218 100.422 32.7041 102.112 32.7041C103.802 32.7041 104.793 31.4218 104.793 29.2068Z" fill="white"/>
<path d="M108.64 24.1361H110.622V25.8847H110.68C110.972 24.7773 111.963 24.0195 113.128 24.0195C113.362 24.0195 113.595 24.0195 113.828 24.0778V26.0596C113.536 25.943 113.187 25.943 112.895 25.943C111.73 25.8847 110.739 26.8173 110.68 27.9831C110.68 28.0997 110.68 28.2163 110.68 28.3328V34.3948H108.582L108.64 24.1361Z" fill="white"/>
<path d="M123.504 31.3055C123.212 33.1707 121.405 34.4531 119.132 34.4531C116.159 34.4531 114.353 32.4713 114.353 29.2654C114.353 26.0596 116.218 24.0195 119.074 24.0195C121.872 24.0195 123.679 25.943 123.679 29.0323V29.7317H116.393V29.8483C116.276 31.3055 117.325 32.5878 118.782 32.7044C118.899 32.7044 119.016 32.7044 119.132 32.7044C120.123 32.821 121.114 32.2381 121.464 31.2472L123.504 31.3055ZM116.393 28.2745H121.464C121.522 26.9339 120.531 25.7682 119.132 25.7099C119.074 25.7099 119.016 25.7099 118.957 25.7099C117.558 25.7099 116.393 26.8173 116.393 28.2745Z" fill="white"/>
<path d="M42.9491 9.85534C44.5811 9.73876 45.98 10.9628 46.0966 12.5949C46.0966 12.7697 46.0966 13.0029 46.0966 13.1777C46.0966 15.3344 44.9309 16.5584 42.9491 16.5584H40.501V9.85534H42.9491ZM41.5502 15.5675H42.8325C43.9982 15.6258 44.9891 14.7515 45.0474 13.5858C45.0474 13.4692 45.0474 13.2943 45.0474 13.1777C45.2223 12.012 44.4063 10.9628 43.2405 10.7879C43.1239 10.7879 42.9491 10.7879 42.8325 10.7879H41.5502V15.5675Z" fill="white"/>
<path d="M47.3211 13.9941C47.2045 12.6535 48.1371 11.4877 49.4777 11.3712C50.8183 11.2546 51.9841 12.1872 52.1007 13.5278C52.1007 13.7027 52.1007 13.8192 52.1007 13.9941C52.2172 15.3347 51.2846 16.5005 49.944 16.6171C48.6034 16.7336 47.4376 15.801 47.3211 14.4604C47.2628 14.3438 47.2628 14.169 47.3211 13.9941ZM51.0515 13.9941C51.0515 12.8866 50.5852 12.2455 49.7109 12.2455C48.8365 12.2455 48.3702 12.8866 48.3702 13.9941C48.3702 15.1016 48.8365 15.7427 49.7109 15.7427C50.5269 15.7427 51.0515 15.1016 51.0515 13.9941Z" fill="white"/>
<path d="M58.4537 16.5593H57.4045L56.3554 12.8289H56.2971L55.2479 16.5593H54.1987L52.7998 11.4883H53.7907L54.7233 15.3353H54.7816L55.8308 11.4883H56.7634L57.8126 15.3353H57.8708L58.7452 11.4883H59.7361L58.4537 16.5593Z" fill="white"/>
<path d="M61.0186 11.4865H62.0094V12.3025H62.0677C62.3009 11.7196 62.9421 11.3699 63.5832 11.4282C64.5158 11.3699 65.2736 12.0694 65.3319 12.9437C65.3319 13.0602 65.3319 13.1768 65.3319 13.2934V16.5575H64.341V13.5265C64.341 12.7105 63.9912 12.3025 63.2335 12.3025C62.5923 12.2442 62.0677 12.7688 62.0094 13.41C62.0094 13.4683 62.0094 13.5265 62.0094 13.5848V16.5575H61.0186V11.4865Z" fill="white"/>
<path d="M66.9053 9.50586H67.8962V16.5587H66.9053V9.50586Z" fill="white"/>
<path d="M69.2947 13.9941C69.1781 12.6535 70.1107 11.4877 71.4513 11.3712C72.792 11.2546 73.9577 12.1872 74.0743 13.5278C74.0743 13.7027 74.0743 13.8192 74.0743 13.9941C74.1909 15.3347 73.2583 16.5005 71.9176 16.6171C70.577 16.7336 69.4113 15.801 69.2947 14.4604C69.2364 14.3438 69.2364 14.169 69.2947 13.9941ZM73.0251 13.9941C73.0251 12.8866 72.5588 12.2455 71.6845 12.2455C70.8102 12.2455 70.3439 12.8866 70.3439 13.9941C70.3439 15.1016 70.8102 15.7427 71.6845 15.7427C72.5588 15.7427 73.0251 15.1016 73.0251 13.9941Z" fill="white"/>
<path d="M75.124 15.1015C75.124 14.1689 75.8235 13.6443 76.9892 13.586L78.3881 13.5277V13.0614C78.3881 12.5369 78.0384 12.2454 77.339 12.2454C76.7561 12.2454 76.4064 12.4786 76.2898 12.8283H75.2989C75.4155 11.954 76.2315 11.3711 77.3973 11.3711C78.6796 11.3711 79.379 12.0123 79.379 13.0614V16.5004H78.3881V15.801H78.3299C77.9801 16.3256 77.3973 16.617 76.8144 16.617C75.9983 16.7336 75.2406 16.0924 75.124 15.2764C75.124 15.2181 75.124 15.1598 75.124 15.1015ZM78.3881 14.6935V14.2855L77.1641 14.3438C76.4646 14.4021 76.1732 14.6352 76.1732 15.1015C76.1732 15.5678 76.5812 15.801 77.1058 15.801C77.6887 15.8593 78.2716 15.393 78.3881 14.6935Z" fill="white"/>
<path d="M80.6611 13.9937C80.6611 12.4199 81.4772 11.3708 82.7595 11.3708C83.4007 11.3125 83.9835 11.6622 84.3333 12.2451H84.3916V9.44727H85.3825V16.5001H84.4498V15.7424H84.3916C84.0418 16.3252 83.4589 16.675 82.8178 16.6167C81.4772 16.6167 80.6611 15.6258 80.6611 13.9937ZM81.7103 13.9937C81.7103 15.0429 82.2349 15.7424 83.0509 15.7424C83.867 15.7424 84.3916 15.1012 84.3916 14.052C84.3916 13.0028 83.867 12.3034 83.0509 12.3034C82.2349 12.3034 81.7103 12.9445 81.7103 13.9937Z" fill="white"/>
<path d="M89.5206 13.9941C89.404 12.6535 90.3366 11.4877 91.6772 11.3712C93.0178 11.2546 94.1836 12.1872 94.3002 13.5278C94.3002 13.7027 94.3002 13.8192 94.3002 13.9941C94.4168 15.3347 93.4841 16.5005 92.1435 16.6171C90.8029 16.7336 89.6371 15.801 89.5206 14.4604C89.5206 14.3438 89.5206 14.169 89.5206 13.9941ZM93.3093 13.9941C93.3093 12.8866 92.843 12.2455 91.9687 12.2455C91.0943 12.2455 90.628 12.8866 90.628 13.9941C90.628 15.1016 91.0943 15.7427 91.9687 15.7427C92.7847 15.7427 93.3093 15.1016 93.3093 13.9941Z" fill="white"/>
<path d="M95.6416 11.4865H96.6325V12.3025H96.6908C96.9239 11.7196 97.5651 11.3699 98.2063 11.4282C99.1389 11.3699 99.8966 12.0694 99.9549 12.9437C99.9549 13.0602 99.9549 13.1768 99.9549 13.2934V16.5575H98.964V13.5265C98.964 12.7105 98.6143 12.3025 97.8565 12.3025C97.2154 12.2442 96.6908 12.7688 96.6325 13.41C96.6325 13.4683 96.6325 13.5265 96.6325 13.5848V16.5575H95.6416V11.4865Z" fill="white"/>
<path d="M105.609 10.2051V11.4874H106.716V12.3034H105.609V14.9264C105.609 15.451 105.842 15.6841 106.308 15.6841C106.425 15.6841 106.541 15.6841 106.716 15.6841V16.5002C106.541 16.5585 106.366 16.5585 106.192 16.5585C105.084 16.5585 104.618 16.1504 104.618 15.2178V12.3617H103.802V11.5457H104.618V10.2634H105.609V10.2051Z" fill="white"/>
<path d="M108.057 9.50586H109.048V12.3037H109.106C109.397 11.7208 109.98 11.3711 110.68 11.3711C111.612 11.3128 112.37 12.0122 112.428 12.9448C112.428 13.0614 112.428 13.178 112.428 13.2363V16.5004H111.437V13.4694C111.437 12.6534 111.088 12.2454 110.33 12.2454C109.689 12.1871 109.106 12.6534 109.048 13.3529C109.048 13.4111 109.048 13.4694 109.048 13.5277V16.5004H108.057V9.50586Z" fill="white"/>
<path d="M118.257 15.1601C117.965 16.0927 117.033 16.7339 116.042 16.6173C114.76 16.6756 113.71 15.6264 113.652 14.4024C113.652 14.2858 113.652 14.1692 113.652 14.0526C113.477 12.7703 114.352 11.6046 115.634 11.4297C115.75 11.4297 115.867 11.4297 115.984 11.4297C117.383 11.4297 118.257 12.4206 118.257 13.9944V14.3441H114.701V14.4024C114.643 15.1601 115.168 15.8013 115.925 15.8596C115.984 15.8596 115.984 15.8596 116.042 15.8596C116.508 15.9179 117.033 15.6847 117.266 15.2184L118.257 15.1601ZM114.76 13.528H117.324C117.383 12.8286 116.858 12.2457 116.217 12.2457C116.158 12.2457 116.159 12.2457 116.1 12.2457C115.342 12.2457 114.76 12.7703 114.76 13.528Z" fill="white"/>
</g>
</g>
<defs>
<clipPath id="clip0_861_16827">
<rect width="134.645" height="45" fill="white" transform="translate(0.399414 0.00390625)"/>
</clipPath>
<clipPath id="clip1_861_16827">
<rect width="134.645" height="44.9982" fill="white" transform="translate(0.399414 0.00390625)"/>
</clipPath>
</defs>
</svg>
