<svg width="18" height="19" viewBox="0 0 18 19" fill="none" xmlns="http://www.w3.org/2000/svg">
<g id="SVG">
<path id="Vector" d="M6.91127 7.86373H16.5541C16.6425 7.86373 16.7148 7.7914 16.7148 7.70301V6.57801C16.7148 6.48962 16.6425 6.4173 16.5541 6.4173H6.91127C6.82288 6.4173 6.75056 6.48962 6.75056 6.57801V7.70301C6.75056 7.7914 6.82288 7.86373 6.91127 7.86373ZM6.75056 11.9619C6.75056 12.0503 6.82288 12.1227 6.91127 12.1227H16.5541C16.6425 12.1227 16.7148 12.0503 16.7148 11.9619V10.8369C16.7148 10.7485 16.6425 10.6762 16.5541 10.6762H6.91127C6.82288 10.6762 6.75056 10.7485 6.75056 10.8369V11.9619ZM16.8756 2.19855H1.12556C1.03717 2.19855 0.964844 2.27087 0.964844 2.35926V3.48426C0.964844 3.57265 1.03717 3.64498 1.12556 3.64498H16.8756C16.964 3.64498 17.0363 3.57265 17.0363 3.48426V2.35926C17.0363 2.27087 16.964 2.19855 16.8756 2.19855ZM16.8756 14.895H1.12556C1.03717 14.895 0.964844 14.9673 0.964844 15.0557V16.1807C0.964844 16.2691 1.03717 16.3414 1.12556 16.3414H16.8756C16.964 16.3414 17.0363 16.2691 17.0363 16.1807V15.0557C17.0363 14.9673 16.964 14.895 16.8756 14.895ZM1.03315 9.40859L4.1731 11.8816C4.28962 11.974 4.46239 11.8916 4.46239 11.743V6.79698C4.46239 6.64832 4.29163 6.56596 4.1731 6.65837L1.03315 9.13136C1.01203 9.14777 0.994949 9.1688 0.983197 9.19282C0.971445 9.21684 0.965335 9.24323 0.965335 9.26998C0.965335 9.29672 0.971445 9.32311 0.983197 9.34713C0.994949 9.37116 1.01203 9.39218 1.03315 9.40859Z" fill="black" fill-opacity="0.88"/>
</g>
</svg>
