<svg width="97" height="29" viewBox="0 0 97 29" fill="none" xmlns="http://www.w3.org/2000/svg">
<path d="M92.286 28.4445H4.15362C2.21438 28.4445 0.646484 26.8766 0.646484 24.9373V3.7708C0.646484 1.83156 2.21438 0.263672 4.15362 0.263672H92.2447C94.1839 0.263672 95.7518 1.83156 95.7518 3.7708V24.8961C95.7931 26.8766 94.2252 28.4445 92.286 28.4445Z" fill="black"/>
<path d="M92.286 0.843269C93.9364 0.843269 95.2567 2.1636 95.2567 3.81401V24.9393C95.2567 26.5897 93.9364 27.91 92.286 27.91H4.15362C2.50321 27.91 1.18287 26.5897 1.18287 24.9393V3.77275C1.18287 2.12234 2.50321 0.802009 4.15362 0.802009H92.286M92.286 0.265625H4.15362C2.21438 0.265625 0.646484 1.83352 0.646484 3.77275V24.898C0.646484 26.8373 2.21438 28.4052 4.15362 28.4052H92.2447C94.1839 28.4052 95.7518 26.8373 95.7518 24.898V3.77275C95.7931 1.83352 94.2252 0.265625 92.286 0.265625Z" fill="#A6A6A6"/>
<path d="M19.0385 14.6423C19.0385 13.4359 19.6965 12.3391 20.6836 11.7176C20.0256 10.8037 19.0019 10.2187 17.8686 10.1822C16.6987 10.0725 15.5288 10.8768 14.9439 10.8768C14.3224 10.8768 13.4084 10.1822 12.3847 10.2187C11.0686 10.2553 9.86218 10.9864 9.24067 12.1563C7.88799 14.5327 8.91164 18.0057 10.1912 19.9068C10.8493 20.8573 11.617 21.881 12.6041 21.8444C13.5912 21.8079 13.9568 21.2229 15.1267 21.2229C16.2966 21.2229 16.6256 21.8444 17.6492 21.8079C18.7094 21.8079 19.3675 20.8573 19.989 19.9068C20.4643 19.2487 20.8299 18.5176 21.0492 17.7133C19.8428 17.2015 19.0385 15.995 19.0385 14.6423Z" fill="white"/>
<path d="M17.1 8.93968C17.6849 8.24506 17.9408 7.36765 17.9043 6.49023C17.0268 6.59991 16.2225 7.00206 15.6376 7.66012C15.0527 8.31818 14.7602 9.15903 14.8333 10.0364C15.7107 10.0364 16.5516 9.6343 17.1 8.93968Z" fill="white"/>
<path d="M30.4476 19.4662H27.1207L26.3164 21.8425H24.8906L28.0713 13.0684H29.5336L32.7142 21.8425H31.2884L30.4476 19.4662ZM27.4498 18.3694H30.082L28.7659 14.5307H28.7293L27.4498 18.3694Z" fill="white"/>
<path d="M39.5147 18.625C39.5147 20.5992 38.4544 21.8787 36.8458 21.8787C36.005 21.9153 35.2373 21.4766 34.8351 20.7454H34.7985V23.926H33.4824V15.4444H34.762V16.5046H34.7985C35.2007 15.7734 36.005 15.3347 36.8458 15.3713C38.4544 15.3713 39.5147 16.6508 39.5147 18.625ZM38.162 18.625C38.162 17.3454 37.5039 16.468 36.4803 16.468C35.4932 16.468 34.7985 17.3454 34.7985 18.625C34.7985 19.9046 35.4566 20.782 36.4803 20.782C37.5039 20.782 38.162 19.9411 38.162 18.625Z" fill="white"/>
<path d="M46.5322 18.625C46.5322 20.5992 45.472 21.8787 43.8634 21.8787C43.0226 21.9153 42.2548 21.4766 41.8527 20.7454H41.8161V23.926H40.5V15.4444H41.7796V16.5046H41.8161C42.2183 15.7734 43.0226 15.3347 43.8634 15.3713C45.472 15.3713 46.5322 16.6508 46.5322 18.625ZM45.1795 18.625C45.1795 17.3454 44.5215 16.468 43.4978 16.468C42.5107 16.468 41.8161 17.3454 41.8161 18.625C41.8161 19.9046 42.4742 20.782 43.4978 20.782C44.5215 20.782 45.1795 19.9411 45.1795 18.625Z" fill="white"/>
<path d="M51.1755 19.3928C51.2852 20.2702 52.126 20.8186 53.2594 20.8186C54.3561 20.8186 55.1604 20.2336 55.1604 19.4659C55.1604 18.7713 54.6852 18.3691 53.5518 18.1132L52.4185 17.8573C50.8099 17.4552 50.0787 16.724 50.0787 15.481C50.0787 13.9821 51.3949 12.9219 53.2594 12.9219C55.1239 12.9219 56.3669 13.9455 56.44 15.481H55.1239C55.0507 14.6036 54.3196 14.0918 53.2594 14.0918C52.1992 14.0918 51.468 14.6401 51.468 15.4079C51.468 16.0294 51.9432 16.395 53.0766 16.6874L54.0271 16.9068C55.8185 17.3455 56.5862 18.0401 56.5862 19.3197C56.5862 20.9648 55.2701 21.9885 53.1862 21.9885C51.2486 21.9885 49.9325 21.0014 49.8594 19.3928H51.1755Z" fill="white"/>
<path d="M59.402 13.9453V15.4442H60.6084V16.4679H59.402V19.9775C59.402 20.5259 59.6579 20.7818 60.1697 20.7818C60.3159 20.7818 60.4622 20.7818 60.6084 20.7453V21.7689C60.3525 21.8055 60.1331 21.842 59.8772 21.842C58.5977 21.842 58.0858 21.3668 58.0858 20.1238V16.4679H57.1719V15.4442H58.0858V13.9453H59.402Z" fill="white"/>
<path d="M61.3027 18.6243C61.3027 16.6135 62.4726 15.334 64.3371 15.334C66.2016 15.334 67.3715 16.6135 67.3715 18.6243C67.3715 20.635 66.2016 21.9146 64.3371 21.9146C62.4726 21.9146 61.3027 20.635 61.3027 18.6243ZM66.0554 18.6243C66.0554 17.235 65.4339 16.4308 64.3737 16.4308C63.3135 16.4308 62.692 17.235 62.692 18.6243C62.692 20.0135 63.3135 20.8178 64.3737 20.8178C65.4339 20.8178 66.0554 20.0135 66.0554 18.6243Z" fill="white"/>
<path d="M68.4682 15.4442H69.7112V16.541H69.7478C69.9306 15.8464 70.5521 15.3711 71.2832 15.3711C71.4295 15.3711 71.5757 15.3711 71.7219 15.4077V16.6507C71.5392 16.5775 71.3198 16.5775 71.137 16.5775C70.4058 16.541 69.7843 17.1259 69.7478 17.8571C69.7478 17.9302 69.7478 18.0033 69.7478 18.0764V21.8786H68.4316L68.4682 15.4442Z" fill="white"/>
<path d="M77.7905 19.941C77.6077 21.1108 76.4744 21.9151 75.0486 21.9151C73.1841 21.9151 72.0508 20.6721 72.0508 18.6614C72.0508 16.6507 73.2207 15.3711 75.0121 15.3711C76.7669 15.3711 77.9002 16.5775 77.9002 18.5152V18.9539H73.3303V19.027C73.2572 19.941 73.9153 20.7452 74.8293 20.8184C74.9024 20.8184 74.9755 20.8184 75.0486 20.8184C75.6701 20.8915 76.2916 20.5259 76.511 19.9044L77.7905 19.941ZM73.3303 18.0399H76.511C76.5475 17.199 75.926 16.4679 75.0486 16.4313C75.0121 16.4313 74.9755 16.4313 74.9389 16.4313C74.0615 16.4313 73.3303 17.1259 73.3303 18.0399Z" fill="white"/>
<path d="M26.8714 4.91497C27.8951 4.84186 28.7725 5.60959 28.8456 6.63324C28.8456 6.74292 28.8456 6.88915 28.8456 6.99883C28.8456 8.35151 28.1144 9.11924 26.8714 9.11924H25.3359V4.91497H26.8714ZM25.994 8.49774H26.7983C27.5295 8.5343 28.151 7.98592 28.1875 7.25474C28.1875 7.18162 28.1875 7.07195 28.1875 6.99883C28.2972 6.26765 27.7854 5.60959 27.0542 5.49992C26.9811 5.49992 26.8714 5.49992 26.7983 5.49992H25.994V8.49774Z" fill="white"/>
<path d="M29.6134 7.51069C29.5402 6.66983 30.1252 5.93866 30.966 5.86554C31.8069 5.79242 32.5381 6.37736 32.6112 7.21822C32.6112 7.32789 32.6112 7.40101 32.6112 7.51069C32.6843 8.35154 32.0994 9.08272 31.2585 9.15584C30.4177 9.22895 29.6865 8.64401 29.6134 7.80316C29.5768 7.73004 29.5768 7.62036 29.6134 7.51069ZM31.9531 7.51069C31.9531 6.81607 31.6607 6.41392 31.1123 6.41392C30.5639 6.41392 30.2714 6.81607 30.2714 7.51069C30.2714 8.20531 30.5639 8.60745 31.1123 8.60745C31.6241 8.60745 31.9531 8.20531 31.9531 7.51069Z" fill="white"/>
<path d="M36.597 9.11812H35.9389L35.2809 6.77835H35.2443L34.5863 9.11812H33.9282L33.0508 5.9375H33.6723L34.2572 8.35038H34.2938L34.9518 5.9375H35.5368L36.1949 8.35038H36.2314L36.7798 5.9375H37.4013L36.597 9.11812Z" fill="white"/>
<path d="M38.2051 5.93895H38.8266V6.45078H38.8631C39.0094 6.08519 39.4115 5.86584 39.8137 5.9024C40.3986 5.86584 40.8739 6.30454 40.9104 6.85293C40.9104 6.92604 40.9104 6.99916 40.9104 7.07228V9.11957H40.2889V7.21851C40.2889 6.70669 40.0696 6.45078 39.5943 6.45078C39.1922 6.41422 38.8631 6.74325 38.8266 7.1454C38.8266 7.18195 38.8266 7.21851 38.8266 7.25507V9.11957H38.2051V5.93895Z" fill="white"/>
<path d="M41.8965 4.69531H42.518V9.11893H41.8965V4.69531Z" fill="white"/>
<path d="M43.3966 7.50873C43.3234 6.66788 43.9084 5.9367 44.7492 5.86359C45.5901 5.79047 46.3213 6.37541 46.3944 7.21626C46.3944 7.32594 46.3944 7.39906 46.3944 7.50873C46.4675 8.34959 45.8826 9.08076 45.0417 9.15388C44.2009 9.227 43.4697 8.64206 43.3966 7.8012C43.36 7.72809 43.36 7.61841 43.3966 7.50873ZM45.7363 7.50873C45.7363 6.81412 45.4439 6.41197 44.8955 6.41197C44.3471 6.41197 44.0546 6.81412 44.0546 7.50873C44.0546 8.20335 44.3471 8.6055 44.8955 8.6055C45.4439 8.6055 45.7363 8.20335 45.7363 7.50873Z" fill="white"/>
<path d="M47.0527 8.205C47.0527 7.62006 47.4914 7.29103 48.2226 7.25447L49.1 7.21791V6.92544C49.1 6.59641 48.8807 6.41362 48.442 6.41362C48.0764 6.41362 47.857 6.55985 47.7839 6.77921H47.1624C47.2355 6.23082 47.7474 5.86523 48.4785 5.86523C49.2828 5.86523 49.7215 6.26738 49.7215 6.92544V9.08241H49.1V8.64371H49.0635C48.8441 8.97274 48.4785 9.15553 48.1129 9.15553C47.6011 9.22865 47.1259 8.8265 47.0527 8.31468C47.0527 8.27812 47.0527 8.24156 47.0527 8.205ZM49.1 7.94909V7.69318L48.3323 7.72974C47.8936 7.76629 47.7108 7.91253 47.7108 8.205C47.7108 8.49747 47.9667 8.64371 48.2957 8.64371C48.6613 8.68027 49.0269 8.3878 49.1 7.94909Z" fill="white"/>
<path d="M50.5234 7.50979C50.5234 6.5227 51.0353 5.86464 51.8396 5.86464C52.2417 5.82809 52.6073 6.04744 52.8267 6.41303H52.8632V4.6582H53.4847V9.08182H52.8998V8.60656H52.8632C52.6439 8.97215 52.2783 9.1915 51.8761 9.15494C51.0353 9.15494 50.5234 8.53344 50.5234 7.50979ZM51.1815 7.50979C51.1815 8.16785 51.5105 8.60656 52.0224 8.60656C52.5342 8.60656 52.8632 8.20441 52.8632 7.54635C52.8632 6.88829 52.5342 6.44959 52.0224 6.44959C51.5105 6.44959 51.1815 6.85173 51.1815 7.50979Z" fill="white"/>
<path d="M56.0823 7.51069C56.0092 6.66983 56.5942 5.93866 57.435 5.86554C58.2759 5.79242 59.0071 6.37736 59.0802 7.21822C59.0802 7.32789 59.0802 7.40101 59.0802 7.51069C59.1533 8.35154 58.5683 9.08272 57.7275 9.15584C56.8866 9.22895 56.1555 8.64401 56.0823 7.80316C56.0823 7.73004 56.0823 7.62036 56.0823 7.51069ZM58.4587 7.51069C58.4587 6.81607 58.1662 6.41392 57.6178 6.41392C57.0694 6.41392 56.777 6.81607 56.777 7.51069C56.777 8.20531 57.0694 8.60745 57.6178 8.60745C58.1296 8.60745 58.4587 8.20531 58.4587 7.51069Z" fill="white"/>
<path d="M59.9199 5.93895H60.5414V6.45078H60.578C60.7242 6.08519 61.1264 5.86584 61.5285 5.9024C62.1135 5.86584 62.5887 6.30454 62.6253 6.85293C62.6253 6.92604 62.6253 6.99916 62.6253 7.07228V9.11957H62.0038V7.21851C62.0038 6.70669 61.7844 6.45078 61.3092 6.45078C60.907 6.41422 60.578 6.74325 60.5414 7.1454C60.5414 7.18195 60.5414 7.21851 60.5414 7.25507V9.11957H59.9199V5.93895Z" fill="white"/>
<path d="M66.1724 5.13281V5.93711H66.867V6.44893H66.1724V8.09408C66.1724 8.42311 66.3186 8.56934 66.6111 8.56934C66.6842 8.56934 66.7573 8.56934 66.867 8.56934V9.08117C66.7573 9.11773 66.6477 9.11773 66.538 9.11773C65.8434 9.11773 65.5509 8.86182 65.5509 8.27687V6.48549H65.0391V5.97367H65.5509V5.16937H66.1724V5.13281Z" fill="white"/>
<path d="M67.707 4.69531H68.3285V6.45014H68.3651C68.5479 6.08455 68.9135 5.8652 69.3522 5.8652C69.9371 5.82864 70.4124 6.26734 70.449 6.85229C70.449 6.9254 70.449 6.99852 70.449 7.03508V9.08237H69.8275V7.18131C69.8275 6.66949 69.6081 6.41358 69.1328 6.41358C68.7307 6.37702 68.3651 6.66949 68.3285 7.1082C68.3285 7.14476 68.3285 7.18131 68.3285 7.21787V9.08237H67.707V4.69531Z" fill="white"/>
<path d="M74.1052 8.24211C73.9224 8.82705 73.3375 9.2292 72.716 9.15608C71.9117 9.19264 71.2536 8.53458 71.2171 7.76685C71.2171 7.69373 71.2171 7.62061 71.2171 7.54749C71.1074 6.7432 71.6558 6.01202 72.4601 5.90234C72.5332 5.90234 72.6063 5.90234 72.6794 5.90234C73.5569 5.90234 74.1052 6.52384 74.1052 7.51093V7.73029H71.8751V7.76685C71.8386 8.24211 72.1676 8.64426 72.6429 8.68082C72.6794 8.68082 72.6794 8.68082 72.716 8.68082C73.0085 8.71738 73.3375 8.57114 73.4837 8.27867L74.1052 8.24211ZM71.9117 7.21846H73.5203C73.5569 6.77976 73.2278 6.41417 72.8257 6.41417C72.7891 6.41417 72.7891 6.41417 72.7526 6.41417C72.2773 6.41417 71.9117 6.7432 71.9117 7.21846Z" fill="white"/>
</svg>
