<svg width="auto" height="auto" viewBox="0 0 21 20" fill="none" xmlns="http://www.w3.org/2000/svg">
<g id="domain">
<mask id="mask0_0_1618" style="mask-type:alpha" maskUnits="userSpaceOnUse" x="0" y="0" width="21" height="20">
<rect id="Bounding box" x="0.5" y="0.159668" width="19.6807" height="19.6807" fill="#D9D9D9"/>
</mask>
<g mask="url(#mask0_0_1618)">
<path id="domain_2" d="M2.14008 17.3802V2.61975H10.3404V5.89986H18.5406V17.3802H2.14008ZM3.78013 15.7402H5.42019V14.1001H3.78013V15.7402ZM3.78013 12.4601H5.42019V10.82H3.78013V12.4601ZM3.78013 9.17997H5.42019V7.53992H3.78013V9.17997ZM3.78013 5.89986H5.42019V4.25981H3.78013V5.89986ZM7.06024 15.7402H8.7003V14.1001H7.06024V15.7402ZM7.06024 12.4601H8.7003V10.82H7.06024V12.4601ZM7.06024 9.17997H8.7003V7.53992H7.06024V9.17997ZM7.06024 5.89986H8.7003V4.25981H7.06024V5.89986ZM10.3404 15.7402H16.9006V7.53992H10.3404V9.17997H11.9804V10.82H10.3404V12.4601H11.9804V14.1001H10.3404V15.7402ZM13.6205 10.82V9.17997H15.2605V10.82H13.6205ZM13.6205 14.1001V12.4601H15.2605V14.1001H13.6205Z" fill="#BDBDBD"/>
</g>
</g>
</svg>
