<svg width="177" height="86" viewBox="0 0 177 86" fill="none" xmlns="http://www.w3.org/2000/svg">
<path d="M47.2891 48.4769L67.1241 35.0975C70.4881 46.1244 66.4623 58.4746 56.407 65.2379C44.0906 73.5448 27.3623 70.2918 19.0532 57.96C10.7442 45.6466 14.0164 28.9225 26.3328 20.6154C35.2852 14.5874 46.5538 14.6426 55.2121 19.862L67.7859 11.3896C54.0907 -0.0784192 33.9433 -1.65895 18.3914 8.81661C-0.432521 21.5344 -5.41422 47.0985 7.28825 65.9178C19.9907 84.7555 45.5428 89.7176 64.3667 77.0367C80.9664 65.8443 86.8121 44.6909 79.2567 26.9192C78.2457 24.53 76.9957 22.1959 75.4882 19.9538C74.3117 18.208 73.0434 16.5907 71.6463 15.102L39.4397 36.8251C36.2227 38.9937 35.3771 43.3677 37.5463 46.5839C39.7154 49.7817 44.0722 50.6455 47.2891 48.4769Z" fill="#007AFF"/>
<path d="M32.2147 38.8592L42.5471 54.1887C42.6757 54.3909 42.9515 54.4277 43.1353 54.299L51.4453 48.6929C51.6476 48.5642 51.6843 48.2885 51.5557 48.1046L41.2233 32.7752C41.0947 32.573 40.8188 32.5362 40.635 32.6649L32.3249 38.271C32.1412 38.3996 32.0859 38.657 32.2147 38.8592Z" fill="#007AFF"/>
<path d="M27.8973 46.8511C28.2462 47.3659 28.9626 47.5129 29.477 47.1637L35.7042 42.9532C36.2185 42.604 36.3655 41.8869 36.0164 41.3721C35.6674 40.8573 34.951 40.7102 34.4366 41.0596L28.2095 45.2699C27.6952 45.6193 27.5482 46.3179 27.8973 46.8511Z" fill="#007AFF"/>
<path d="M33.7886 48.8648C34.1375 49.3796 34.8535 49.5266 35.3675 49.1774L41.5912 44.967C42.1052 44.6176 42.252 43.9006 41.9033 43.3858C41.5544 42.871 40.8384 42.7238 40.3244 43.0732L34.1008 47.2836C33.5683 47.6329 33.4399 48.3316 33.7886 48.8648Z" fill="#007AFF"/>
<path d="M33.5062 55.1909C33.8563 55.7057 34.5749 55.8528 35.0908 55.5035L41.3376 51.2932C41.8535 50.9438 42.001 50.2268 41.6508 49.712C41.3007 49.1972 40.5821 49.05 40.0662 49.3994L33.8194 53.6097C33.2851 53.9591 33.1561 54.6577 33.5062 55.1909Z" fill="#007AFF"/>
<path d="M45.2419 39.8906L40.8403 41.7831L41.7243 43.1795L37.6543 44.833L44.1185 44.0798L43.1976 42.6834L46.752 42.2424L45.2419 39.8906Z" fill="white"/>
<path d="M156.507 0.732422C145.364 0.732422 136.328 9.76843 136.328 20.9112C136.328 32.054 145.364 41.09 156.507 41.09C167.654 41.09 176.69 32.054 176.69 20.9112C176.69 9.76843 167.654 0.732422 156.507 0.732422ZM156.507 34.1161C149.216 34.1161 143.306 28.2017 143.306 20.9153C143.306 13.6248 149.22 7.71443 156.507 7.71443C163.802 7.71443 169.708 13.6288 169.708 20.9153C169.708 28.2017 163.797 34.1161 156.507 34.1161Z" fill="#007AFF"/>
<path d="M113.34 24.7797L125.08 24.7391C123.444 30.1502 118.43 34.0958 112.484 34.1161C105.193 34.1405 99.2624 28.2545 99.2339 20.9599C99.2096 13.6694 105.1 7.73875 112.39 7.71034C117.684 7.69004 122.262 10.7914 124.377 15.285L131.814 15.2606C129.362 6.84165 121.572 0.703982 112.366 0.736456C101.223 0.777049 92.2154 9.84147 92.256 20.9883C92.2966 32.1352 101.361 41.1387 112.508 41.0981C122.335 41.0656 130.491 34.0228 132.26 24.7188C132.504 23.4686 132.626 22.1736 132.622 20.8503C132.618 19.8192 132.536 18.8085 132.382 17.8221L113.316 17.887C111.412 17.8951 109.873 19.4417 109.877 21.3455C109.89 23.2453 111.436 24.7838 113.34 24.7797Z" fill="#13F2AD"/>
<path d="M176.548 68.3947C174.912 77.8975 166.631 85.1271 156.657 85.1271C145.515 85.1271 136.479 76.0911 136.479 64.9483C136.479 53.8055 145.515 44.7695 156.657 44.7695C166.631 44.7695 174.916 51.9992 176.548 61.502H169.404C167.885 55.8839 162.754 51.7475 156.657 51.7475C149.367 51.7475 143.456 57.6619 143.456 64.9483C143.456 72.2388 149.371 78.1492 156.657 78.1492C162.754 78.1492 167.885 74.0168 169.404 68.3947H176.548Z" fill="#0BF1A7"/>
<path d="M113.332 61.0663H125.075C123.419 55.6552 118.394 51.7299 112.443 51.7299C105.152 51.7299 99.2338 57.6403 99.2338 64.9389C99.2338 72.2294 105.148 78.1479 112.443 78.1479C117.74 78.1479 122.311 75.0303 124.41 70.5285H131.85C129.427 78.9597 121.653 85.1258 112.443 85.1258C101.296 85.1258 92.2559 76.0857 92.2559 64.9389C92.2559 53.7839 101.296 44.752 112.443 44.752C122.274 44.752 130.458 51.7705 132.26 61.0704C132.508 62.3206 132.634 63.6155 132.634 64.9389C132.634 65.9699 132.557 66.9807 132.402 67.9671H113.328C111.424 67.9671 109.877 66.4246 109.877 64.5167C109.885 62.6088 111.428 61.0663 113.332 61.0663Z" fill="#007AFF"/>
</svg>
