<svg width="44" height="44" viewBox="0 0 44 44" fill="none" xmlns="http://www.w3.org/2000/svg">
<rect width="43.3114" height="43.3114" rx="21.6557" fill="#0047C3"/>
<path d="M23.8322 23.7003L31.1428 18.769C32.3827 22.8332 30.8989 27.3852 27.1928 29.878C22.6533 32.9397 16.4877 31.7407 13.4252 27.1955C10.3627 22.6571 11.5687 16.4931 16.1082 13.4313C19.4078 11.2095 23.5612 11.2299 26.7524 13.1536L31.3868 10.0309C26.3391 5.80408 18.9133 5.22154 13.1812 9.08255C6.24323 13.77 4.40711 23.1923 9.0889 30.1286C13.7707 37.0717 23.1885 38.9005 30.1265 34.2267C36.2447 30.1015 38.3993 22.3049 35.6146 15.7547C35.242 14.8741 34.7812 14.0138 34.2256 13.1874C33.792 12.544 33.3245 11.9479 32.8096 11.3992L20.9391 19.4057C19.7534 20.205 19.4417 21.8172 20.2412 23.0026C21.0407 24.1812 22.6465 24.4996 23.8322 23.7003Z" fill="white"/>
<path d="M18.2754 20.1551L22.0837 25.8052C22.1311 25.8797 22.2327 25.8933 22.3005 25.8459L25.3633 23.7796C25.4379 23.7321 25.4514 23.6305 25.404 23.5628L21.5958 17.9128C21.5484 17.8382 21.4467 17.8247 21.379 17.8721L18.3161 19.9383C18.2483 19.9858 18.228 20.0806 18.2754 20.1551Z" fill="white"/>
<path d="M16.6851 23.1006C16.8137 23.2903 17.0777 23.3445 17.2673 23.2158L19.5625 21.664C19.752 21.5352 19.8062 21.2709 19.6775 21.0812C19.5489 20.8914 19.2849 20.8372 19.0953 20.966L16.8001 22.5178C16.6106 22.6466 16.5564 22.9041 16.6851 23.1006Z" fill="white"/>
<path d="M18.8563 23.8431C18.9849 24.0328 19.2488 24.087 19.4383 23.9583L21.7321 22.4065C21.9216 22.2777 21.9757 22.0134 21.8472 21.8237C21.7186 21.634 21.4547 21.5797 21.2652 21.7085L18.9714 23.2603C18.7751 23.3891 18.7278 23.6466 18.8563 23.8431Z" fill="white"/>
<path d="M18.7512 26.1754C18.8802 26.3652 19.1451 26.4194 19.3352 26.2906L21.6376 24.7388C21.8278 24.6101 21.8821 24.3458 21.7531 24.156C21.6241 23.9663 21.3592 23.9121 21.169 24.0408L18.8666 25.5926C18.6697 25.7214 18.6221 25.9789 18.7512 26.1754Z" fill="white"/>
<path d="M23.0784 20.5361L21.4561 21.2336L21.7819 21.7483L20.2818 22.3578L22.6643 22.0801L22.3249 21.5655L23.635 21.4029L23.0784 20.5361Z" fill="#0245B8"/>
</svg>
