<svg width="153" height="46" viewBox="0 0 153 46" fill="none" xmlns="http://www.w3.org/2000/svg">
<g clip-path="url(#clip0_861_16864)">
<g clip-path="url(#clip1_861_16864)">
<path d="M146.505 44.9361H5.99102C2.89919 44.9361 0.399414 42.4363 0.399414 39.3445V5.59747C0.399414 2.50564 2.89919 0.00585938 5.99102 0.00585938H146.439C149.531 0.00585938 152.031 2.50564 152.031 5.59747V39.2787C152.096 42.4363 149.597 44.9361 146.505 44.9361Z" fill="black"/>
<path d="M146.505 0.92683C149.136 0.92683 151.241 3.03191 151.241 5.66325V39.3445C151.241 41.9758 149.136 44.0809 146.505 44.0809H5.99102C3.35968 44.0809 1.2546 41.9758 1.2546 39.3445V5.59747C1.2546 2.96612 3.35968 0.861047 5.99102 0.861047H146.505M146.505 0.00585938H5.99102C2.89919 0.00585938 0.399414 2.50564 0.399414 5.59747V39.2787C0.399414 42.3705 2.89919 44.8703 5.99102 44.8703H146.439C149.531 44.8703 152.031 42.3705 152.031 39.2787V5.59747C152.096 2.50564 149.597 0.00585938 146.505 0.00585938Z" fill="#A6A6A6"/>
<path d="M53.6846 11.5172C53.6846 12.4382 53.4215 13.2276 52.8294 13.7539C52.1716 14.4117 51.3822 14.7406 50.3297 14.7406C49.3429 14.7406 48.5535 14.4117 47.8299 13.7539C47.172 13.0961 46.7773 12.2409 46.7773 11.2541C46.7773 10.2674 47.1063 9.41217 47.8299 8.75433C48.4877 8.0965 49.3429 7.76758 50.3297 7.76758C50.7901 7.76758 51.2506 7.83336 51.7111 8.03071C52.1716 8.22806 52.5005 8.4912 52.7637 8.75433L52.1716 9.34639C51.7769 8.82012 51.1848 8.55698 50.3954 8.55698C49.6718 8.55698 49.0798 8.82012 48.5535 9.2806C48.0272 9.80687 47.7641 10.3989 47.7641 11.2541C47.7641 12.0435 48.0272 12.7014 48.5535 13.2276C49.0798 13.7539 49.6718 13.9512 50.3954 13.9512C51.1191 13.9512 51.7769 13.6881 52.3032 13.2276C52.6321 12.8987 52.8294 12.4382 52.8952 11.8462H50.3954V11.0568H53.6846C53.6846 11.1883 53.6846 11.3857 53.6846 11.5172Z" fill="white"/>
<path d="M50.3954 14.8729C49.4087 14.8729 48.5535 14.544 47.8299 13.8204C47.1063 13.0968 46.7773 12.2416 46.7773 11.2548C46.7773 10.2023 47.1063 9.34709 47.8299 8.68926C48.5535 7.96564 49.4087 7.63672 50.3954 7.63672C50.9217 7.63672 51.3822 7.7025 51.8427 7.89985C52.3032 8.0972 52.6979 8.36034 52.961 8.68926L53.0268 8.75504L52.3032 9.47866L52.2374 9.41288C51.7769 8.88661 51.2506 8.62347 50.4612 8.62347C49.8034 8.62347 49.2113 8.88661 48.6851 9.34709C48.2246 9.80758 47.9615 10.4654 47.9615 11.189C47.9615 11.9784 48.2246 12.5705 48.6851 13.031C49.0798 13.5572 49.6718 13.8204 50.3954 13.8204C51.1191 13.8204 51.7111 13.5572 52.1716 13.0968C52.4347 12.8336 52.6321 12.4389 52.6979 11.9127H50.2639V10.8601H53.7504V10.9259C53.7504 11.1233 53.8162 11.2548 53.8162 11.4522C53.8162 12.4389 53.5531 13.2283 52.961 13.7546C52.3032 14.544 51.3822 14.8729 50.3954 14.8729ZM50.3954 7.83407C49.4745 7.83407 48.6193 8.16299 47.9615 8.82082C47.3036 9.47866 46.9747 10.2681 46.9747 11.2548C46.9747 12.2416 47.3036 13.031 47.9615 13.6888C48.6193 14.3466 49.4087 14.6756 50.3954 14.6756C51.3822 14.6756 52.1716 14.3466 52.7637 13.6888C53.2899 13.1625 53.5531 12.4389 53.5531 11.518C53.5531 11.3864 53.5531 11.2548 53.5531 11.1233H50.4612V11.7153H52.8952V11.8469C52.8294 12.4389 52.6321 12.9652 52.3032 13.2941C51.7769 13.8204 51.1191 14.0835 50.3297 14.0835C49.606 14.0835 48.9482 13.8204 48.4219 13.2941C47.8957 12.7678 47.6325 12.11 47.6325 11.2548C47.6325 10.3996 47.8957 9.7418 48.4219 9.21553C48.9482 8.68926 49.606 8.42612 50.3297 8.42612C51.1191 8.42612 51.7111 8.68926 52.1716 9.14974L52.6321 8.68926C52.369 8.42612 52.04 8.22877 51.7111 8.03142C51.3164 7.89985 50.8559 7.83407 50.3954 7.83407Z" fill="white"/>
<path d="M58.8816 8.68784H55.7898V10.7929H58.5527V11.5823H55.7898V13.6874H58.8816V14.5426H54.9346V7.89844H58.8816V8.68784Z" fill="white"/>
<path d="M58.9471 14.7406H54.8027V7.76758H58.9471V8.82012H55.8553V10.7278H58.6182V11.7804H55.8553V13.6881H58.9471V14.7406ZM55.0659 14.4775H58.7498V13.8855H55.6579V11.5172H58.4208V10.9252H55.6579V8.55698H58.7498V7.96493H55.0659V14.4775V14.4775Z" fill="white"/>
<path d="M62.5002 14.6084H61.645V8.68784H59.7373V7.89844H64.3422V8.75362H62.4344V14.6084H62.5002Z" fill="white"/>
<path d="M62.6315 14.7406H61.5132V8.82012H59.6055V7.76758H64.4735V8.82012H62.5657V14.7406H62.6315ZM61.7763 14.4775H62.4342V8.55698H64.3419V7.96493H59.9344V8.55698H61.8421V14.4775H61.7763Z" fill="white"/>
<path d="M67.7627 14.6084V7.89844H68.6179V14.6084H67.7627Z" fill="white"/>
<path d="M68.7492 14.7406H67.6309V7.76758H68.7492V14.7406ZM67.894 14.4775H68.5518V7.96493H67.894V14.4775Z" fill="white"/>
<path d="M72.4328 14.6084H71.5776V8.68784H69.6699V7.89844H74.2748V8.75362H72.3671V14.6084H72.4328Z" fill="white"/>
<path d="M72.5641 14.7406H71.4458V8.82012H69.5381V7.76758H74.4061V8.82012H72.4984V14.7406H72.5641ZM71.7089 14.4775H72.3668V8.55698H74.2745V7.96493H69.867V8.55698H71.7747V14.4775H71.7089Z" fill="white"/>
<path d="M83.0898 13.7552C82.432 14.4131 81.5768 14.8078 80.5901 14.8078C79.6033 14.8078 78.7481 14.4788 78.0903 13.7552C77.4324 13.0974 77.1035 12.2422 77.1035 11.2554C77.1035 10.2687 77.4324 9.4135 78.0903 8.75566C78.7481 8.09783 79.6033 7.70312 80.5901 7.70312C81.5768 7.70312 82.3662 8.03204 83.0898 8.75566C83.7477 9.4135 84.0766 10.2687 84.0766 11.2554C84.1424 12.2422 83.7477 13.0316 83.0898 13.7552ZM78.8139 13.1632C79.3402 13.6894 79.9322 13.9526 80.6558 13.9526C81.3795 13.9526 81.9715 13.6894 82.4978 13.1632C83.024 12.6369 83.2214 12.0448 83.2214 11.2554C83.2214 10.466 82.9583 9.8082 82.4978 9.34772C81.9715 8.82145 81.3795 8.55831 80.6558 8.55831C79.9322 8.55831 79.3402 8.82145 78.8139 9.34772C78.2876 9.87399 78.0903 10.466 78.0903 11.2554C78.0903 12.0448 78.2876 12.7027 78.8139 13.1632Z" fill="white"/>
<path d="M80.6562 14.8729C79.6694 14.8729 78.8142 14.544 78.0906 13.8204C77.4328 13.0968 77.0381 12.2416 77.0381 11.2548C77.0381 10.2681 77.367 9.34709 78.0906 8.68926C78.7485 7.96564 79.6036 7.63672 80.6562 7.63672C81.6429 7.63672 82.4981 7.96564 83.2217 8.68926C83.8796 9.41288 84.2743 10.2681 84.2743 11.2548C84.2743 12.2416 83.9454 13.1625 83.2217 13.8204C82.4981 14.544 81.6429 14.8729 80.6562 14.8729ZM80.6562 7.83407C79.7352 7.83407 78.88 8.16299 78.288 8.82082C77.6301 9.47866 77.3012 10.2681 77.3012 11.2548C77.3012 12.1758 77.6301 13.031 78.288 13.6888C78.9458 14.3466 79.7352 14.6756 80.6562 14.6756C81.5772 14.6756 82.4323 14.3466 83.0244 13.6888C83.6822 13.031 84.0112 12.2416 84.0112 11.2548C84.0112 10.3338 83.6822 9.47866 83.0244 8.82082C82.3666 8.16299 81.5772 7.83407 80.6562 7.83407ZM80.6562 14.0177C79.9326 14.0177 79.2747 13.7546 78.7485 13.2283C78.2222 12.7021 77.9591 12.0442 77.9591 11.189C77.9591 10.3996 78.2222 9.67601 78.7485 9.14974C79.2747 8.62347 79.9326 8.36034 80.6562 8.36034C81.3798 8.36034 82.0376 8.62347 82.5639 9.14974C83.0902 9.67601 83.3533 10.3338 83.3533 11.189C83.3533 11.9784 83.0902 12.7021 82.5639 13.2283C82.0376 13.7546 81.3798 14.0177 80.6562 14.0177ZM78.88 13.0968C79.3405 13.5572 79.9326 13.8204 80.6562 13.8204C81.314 13.8204 81.9061 13.5572 82.4323 13.0968C82.8928 12.6363 83.156 11.9784 83.156 11.2548C83.156 10.5312 82.8928 9.87336 82.4323 9.41288C81.9719 8.95239 81.3798 8.68926 80.6562 8.68926C79.9983 8.68926 79.4063 8.95239 78.88 9.41288C78.4195 9.87336 78.1564 10.5312 78.1564 11.2548C78.1564 11.9784 78.4195 12.6363 78.88 13.0968Z" fill="white"/>
<path d="M85.3271 14.6084V7.89844H86.3797L89.6689 13.1611H89.7347L89.6689 11.8455V7.89844H90.5241V14.6084H89.6031L86.1823 9.08254H86.1166L86.1823 10.3982V14.6084H85.3271Z" fill="white"/>
<path d="M90.6554 14.7406H89.6028L89.537 14.6749L86.3136 9.47795V10.3989V14.7406H85.1953V7.76758H86.4452L89.6028 12.7671V11.8462V7.76758H90.7211V14.7406H90.6554ZM89.6686 14.4775H90.3922V7.96493H89.7344V11.8462L89.8002 13.2276H89.6028L86.3136 7.96493H85.4585V14.4775H86.1163V10.3989L86.0505 9.01747H86.2479L86.3136 9.08325L89.6686 14.4775Z" fill="white"/>
<path d="M76.9718 24.4775C74.3404 24.4775 72.1696 26.5168 72.1696 29.2797C72.1696 32.0427 74.3404 34.0819 76.9718 34.0819C79.6031 34.0819 81.774 32.0427 81.774 29.2797C81.774 26.451 79.6031 24.4775 76.9718 24.4775ZM76.9718 32.1084C75.5245 32.1084 74.2746 30.9243 74.2746 29.214C74.2746 27.5036 75.5245 26.3195 76.9718 26.3195C78.419 26.3195 79.6689 27.5036 79.6689 29.214C79.6689 30.9243 78.419 32.1084 76.9718 32.1084ZM66.5122 24.4775C63.8808 24.4775 61.71 26.5168 61.71 29.2797C61.71 32.0427 63.8808 34.0819 66.5122 34.0819C69.1435 34.0819 71.3144 32.0427 71.3144 29.2797C71.3144 26.451 69.1435 24.4775 66.5122 24.4775ZM66.5122 32.1084C65.0649 32.1084 63.815 30.9243 63.815 29.214C63.815 27.5036 65.0649 26.3195 66.5122 26.3195C67.9594 26.3195 69.2093 27.5036 69.2093 29.214C69.2093 30.9243 67.9594 32.1084 66.5122 32.1084ZM54.0791 25.9248V27.9641H58.947C58.8155 29.0824 58.4208 29.9376 57.8287 30.5296C57.1051 31.2533 55.9868 32.0427 54.0791 32.0427C51.1188 32.0427 48.7506 29.6087 48.7506 26.6484C48.7506 23.6881 51.1188 21.2541 54.0791 21.2541C55.6579 21.2541 56.842 21.912 57.7629 22.7014L59.2102 21.2541C58.0261 20.07 56.3815 19.2148 54.1448 19.2148C50.0663 19.2148 46.6455 22.5698 46.6455 26.6484C46.6455 30.727 50.0663 34.0819 54.1448 34.0819C56.3815 34.0819 58.0261 33.3583 59.3417 31.9769C60.6574 30.6612 61.1179 28.7535 61.1179 27.2404C61.1179 26.78 61.0521 26.3195 60.9863 25.9906H54.0791V25.9248ZM104.996 27.5036C104.601 26.451 103.417 24.4775 100.917 24.4775C98.483 24.4775 96.3779 26.3853 96.3779 29.2797C96.3779 31.9769 98.4172 34.0819 101.114 34.0819C103.285 34.0819 104.601 32.7663 105.127 31.9769L103.483 30.8585C102.956 31.648 102.167 32.1742 101.114 32.1742C100.062 32.1742 99.2724 31.7137 98.8119 30.727L105.193 28.0956L104.996 27.5036ZM98.4172 29.0824C98.3514 27.2404 99.8645 26.3195 100.917 26.3195C101.772 26.3195 102.43 26.7142 102.693 27.3062L98.4172 29.0824ZM93.2861 33.753H95.3912V19.6753H93.2861V33.753ZM89.7996 25.5301H89.7338C89.2733 24.938 88.3523 24.4775 87.234 24.4775C84.8658 24.4775 82.6292 26.5826 82.6292 29.2797C82.6292 31.9769 84.8 34.0162 87.234 34.0162C88.3523 34.0162 89.2733 33.4899 89.7338 32.8978H89.7996V33.5557C89.7996 35.3976 88.8128 36.3844 87.234 36.3844C85.9183 36.3844 85.1289 35.4634 84.8 34.674L82.9581 35.4634C83.4843 36.7133 84.8658 38.2921 87.1682 38.2921C89.6022 38.2921 91.7073 36.8449 91.7073 33.2925V24.7407H89.7338V25.5301H89.7996ZM87.4314 32.1084C85.9841 32.1084 84.8 30.9243 84.8 29.214C84.8 27.5036 85.9841 26.3195 87.4314 26.3195C88.8786 26.3195 89.9969 27.5694 89.9969 29.214C89.9311 30.9243 88.8128 32.1084 87.4314 32.1084ZM114.797 19.6753H109.798V33.753H111.903V28.4246H114.863C117.166 28.4246 119.468 26.7142 119.468 24.0828C119.468 21.4515 117.1 19.6753 114.797 19.6753ZM114.863 26.451H111.903V21.6488H114.863C116.442 21.6488 117.297 22.9645 117.297 24.0828C117.297 25.1354 116.442 26.451 114.863 26.451ZM127.823 24.4118C126.309 24.4118 124.731 25.0696 124.073 26.5826L125.915 27.372C126.31 26.5826 127.033 26.3195 127.823 26.3195C128.875 26.3195 129.993 26.9773 130.059 28.0956V28.293C129.664 28.0956 128.875 27.7667 127.888 27.7667C125.915 27.7667 123.81 28.885 123.81 30.9243C123.81 32.8321 125.454 34.0162 127.296 34.0162C128.678 34.0162 129.467 33.3583 129.993 32.6347H130.059V33.6872H132.098V28.293C132.098 25.7932 130.191 24.4118 127.823 24.4118ZM127.559 32.1084C126.902 32.1084 125.915 31.7795 125.915 30.9243C125.915 29.8718 127.099 29.4113 128.151 29.4113C129.072 29.4113 129.533 29.6087 130.059 29.8718C129.928 31.1875 128.743 32.1084 127.559 32.1084ZM139.466 24.7407L137.032 30.8585H136.966L134.467 24.7407H132.23L135.98 33.2268L133.875 37.9632H136.045L141.834 24.7407H139.466V24.7407ZM120.586 33.753H122.691V19.6753H120.586V33.753Z" fill="white"/>
<path d="M12.1093 8.49156C11.7804 8.82048 11.583 9.34675 11.583 10.0704V34.9366C11.583 35.6602 11.7804 36.1865 12.1093 36.5154L12.1751 36.5812L26.1212 22.635V22.5035V22.3719L12.1751 8.42578L12.1093 8.49156Z" fill="url(#paint0_linear_861_16864)"/>
<path d="M30.7917 27.3056L26.1211 22.6349V22.5034V22.3718L30.7917 17.7012L30.9233 17.767L36.4491 20.8588C38.0279 21.7798 38.0279 23.227 36.4491 24.0822L30.9233 27.174L30.7917 27.3056Z" fill="url(#paint1_linear_861_16864)"/>
<path d="M30.8577 27.2403L26.1213 22.5039L12.1094 36.5158C12.6356 37.0421 13.4908 37.1079 14.4776 36.5816L30.8577 27.2403Z" fill="url(#paint2_linear_861_16864)"/>
<path d="M30.8581 17.7671L14.4122 8.42585C13.4254 7.89958 12.5702 7.96536 12.0439 8.49163L26.0559 22.5035L30.8581 17.7671Z" fill="url(#paint3_linear_861_16864)"/>
<path opacity="0.2" d="M30.7916 27.1094L14.4772 36.3849C13.5563 36.9111 12.7669 36.8454 12.2406 36.3849L12.1748 36.4507L12.2406 36.5164C12.7669 36.9769 13.5563 37.0427 14.4772 36.5164L30.9231 27.1752L30.7916 27.1094Z" fill="black"/>
<path opacity="0.12" d="M12.1093 36.319C11.7804 35.9901 11.583 35.4639 11.583 34.7402V34.8718C11.583 35.5954 11.7804 36.1217 12.1093 36.4506L12.1751 36.3848L12.1093 36.319Z" fill="black"/>
<path opacity="0.12" d="M36.3836 23.9511L30.792 27.1088L30.9236 27.2403L36.4494 24.1485C37.2388 23.688 37.6335 23.096 37.6335 22.5039C37.5019 23.0302 37.1072 23.5564 36.3836 23.9511Z" fill="black"/>
<path opacity="0.25" d="M14.4775 8.55813L36.3834 21.057C37.1071 21.4517 37.5018 21.978 37.5675 22.5043C37.5675 21.9122 37.1728 21.3202 36.3834 20.8597L14.4775 8.42656C12.8987 7.50559 11.583 8.22921 11.583 10.0711V10.2027C11.583 8.42656 12.8987 7.70294 14.4775 8.55813Z" fill="white"/>
</g>
</g>
<defs>
<linearGradient id="paint0_linear_861_16864" x1="24.8941" y1="9.79356" x2="6.03409" y2="28.6536" gradientUnits="userSpaceOnUse">
<stop stop-color="#00A0FF"/>
<stop offset="0.00657445" stop-color="#00A1FF"/>
<stop offset="0.2601" stop-color="#00BEFF"/>
<stop offset="0.5122" stop-color="#00D2FF"/>
<stop offset="0.7604" stop-color="#00DFFF"/>
<stop offset="1" stop-color="#00E3FF"/>
</linearGradient>
<linearGradient id="paint1_linear_861_16864" x1="38.4186" y1="22.4831" x2="11.2261" y2="22.4831" gradientUnits="userSpaceOnUse">
<stop stop-color="#FFE000"/>
<stop offset="0.4087" stop-color="#FFBD00"/>
<stop offset="0.7754" stop-color="#FFA500"/>
<stop offset="1" stop-color="#FF9C00"/>
</linearGradient>
<linearGradient id="paint2_linear_861_16864" x1="28.2962" y1="25.0624" x2="2.72047" y2="50.6381" gradientUnits="userSpaceOnUse">
<stop stop-color="#FF3A44"/>
<stop offset="1" stop-color="#C31162"/>
</linearGradient>
<linearGradient id="paint3_linear_861_16864" x1="8.59682" y1="0.203615" x2="20.0175" y2="11.6242" gradientUnits="userSpaceOnUse">
<stop stop-color="#32A071"/>
<stop offset="0.0685" stop-color="#2DA771"/>
<stop offset="0.4762" stop-color="#15CF74"/>
<stop offset="0.8009" stop-color="#06E775"/>
<stop offset="1" stop-color="#00F076"/>
</linearGradient>
<clipPath id="clip0_861_16864">
<rect width="151.96" height="45" fill="white" transform="translate(0.399414 0.00390625)"/>
</clipPath>
<clipPath id="clip1_861_16864">
<rect width="151.96" height="44.996" fill="white" transform="translate(0.399414 0.00585938)"/>
</clipPath>
</defs>
</svg>
