<svg width="69" height="34" viewBox="0 0 69 34" fill="none" xmlns="http://www.w3.org/2000/svg">
<path d="M18.4613 19.1381L26.106 13.9815C27.4025 18.2314 25.8509 22.9913 21.9754 25.598C17.2285 28.7996 10.7812 27.5459 7.57875 22.793C4.37636 18.0472 5.63748 11.6015 10.3844 8.39987C13.8348 6.0766 18.1779 6.09785 21.5149 8.10948L26.361 4.84409C21.0827 0.424167 13.3176 -0.184993 7.32368 3.85244C0.0686728 8.75404 -1.85134 18.6068 3.04437 25.8601C7.94008 33.1204 17.7882 35.0328 25.0432 30.1454C31.441 25.8317 33.694 17.6789 30.782 10.8294C30.3924 9.90862 29.9106 9.00903 29.3296 8.14489C28.8762 7.472 28.3873 6.84868 27.8489 6.27493L15.436 14.6473C14.1961 15.4831 13.8702 17.1689 14.7062 18.4085C15.5423 19.641 17.2214 19.9739 18.4613 19.1381Z" fill="white"/>
<path d="M12.652 15.43L16.6343 21.3382C16.6839 21.4161 16.7901 21.4303 16.861 21.3807L20.0638 19.22C20.1417 19.1704 20.1559 19.0642 20.1063 18.9933L16.1241 13.0851C16.0745 13.0072 15.9682 12.993 15.8974 13.0426L12.6945 15.2033C12.6237 15.2528 12.6024 15.352 12.652 15.43Z" fill="white"/>
<path d="M10.9874 18.5106C11.1219 18.709 11.398 18.7657 11.5962 18.6311L13.9963 17.0083C14.1945 16.8737 14.2511 16.5973 14.1166 16.3989C13.9821 16.2005 13.706 16.1438 13.5077 16.2785L11.1077 17.9012C10.9095 18.0358 10.8529 18.3051 10.9874 18.5106Z" fill="white"/>
<path d="M13.2587 19.2879C13.3932 19.4864 13.6691 19.543 13.8672 19.4084L16.2659 17.7857C16.464 17.651 16.5206 17.3747 16.3862 17.1763C16.2517 16.9779 15.9758 16.9212 15.7777 17.0558L13.379 18.6785C13.1738 18.8132 13.1243 19.0824 13.2587 19.2879Z" fill="white"/>
<path d="M13.1496 21.7254C13.2846 21.9239 13.5615 21.9805 13.7604 21.8459L16.168 20.2232C16.3668 20.0885 16.4236 19.8122 16.2887 19.6138C16.1538 19.4154 15.8768 19.3587 15.6779 19.4933L13.2704 21.116C13.0644 21.2507 13.0147 21.52 13.1496 21.7254Z" fill="white"/>
<path d="M17.6724 15.8301L15.976 16.5595L16.3167 17.0976L14.748 17.7349L17.2394 17.4446L16.8845 16.9064L18.2544 16.7365L17.6724 15.8301Z" fill="#0245B8"/>
<path d="M60.5565 0.736328C56.2619 0.736328 52.7793 4.21894 52.7793 8.51353C52.7793 12.8081 56.2619 16.2907 60.5565 16.2907C64.8527 16.2907 68.3353 12.8081 68.3353 8.51353C68.3353 4.21894 64.8527 0.736328 60.5565 0.736328ZM60.5565 13.6029C57.7466 13.6029 55.4687 11.3234 55.4687 8.51509C55.4687 5.70523 57.7482 3.42729 60.5565 3.42729C63.3679 3.42729 65.6443 5.70679 65.6443 8.51509C65.6443 11.3234 63.3664 13.6029 60.5565 13.6029Z" fill="white"/>
<path d="M43.9191 10.0049L48.4437 9.9893C47.8132 12.0748 45.881 13.5955 43.589 13.6033C40.7791 13.6127 38.4934 11.3442 38.4824 8.53274C38.473 5.72287 40.7432 3.43712 43.553 3.42617C45.5931 3.41834 47.3579 4.61363 48.173 6.34555L51.0392 6.33616C50.0942 3.09136 47.092 0.725815 43.5436 0.738331C39.249 0.753976 35.7774 4.24753 35.793 8.54369C35.8087 12.8398 39.3022 16.3099 43.5984 16.2943C47.3861 16.2818 50.5292 13.5673 51.2113 9.98148C51.3052 9.49961 51.3521 9.00053 51.3506 8.4905C51.349 8.09311 51.3177 7.70355 51.2583 7.32337L43.9097 7.3484C43.176 7.35153 42.583 7.94761 42.5846 8.68137C42.5893 9.41356 43.1854 10.0065 43.9191 10.0049Z" fill="#13F2AD"/>
<path d="M68.2812 26.8125C67.6507 30.475 64.4591 33.2614 60.6151 33.2614C56.3205 33.2614 52.8379 29.7788 52.8379 25.4842C52.8379 21.1896 56.3205 17.707 60.6151 17.707C64.4591 17.707 67.6523 20.4934 68.2812 24.156H65.5277C64.9425 21.9907 62.965 20.3964 60.6151 20.3964C57.8052 20.3964 55.5273 22.6759 55.5273 25.4842C55.5273 28.2941 57.8068 30.572 60.6151 30.572C62.965 30.572 64.9425 28.9794 65.5277 26.8125H68.2812Z" fill="#0BF1A7"/>
<path d="M43.9159 23.989H48.4421C47.8037 21.9035 45.8669 20.3906 43.5733 20.3906C40.7634 20.3906 38.4824 22.6685 38.4824 25.4815C38.4824 28.2914 40.7619 30.5724 43.5733 30.5724C45.615 30.5724 47.3766 29.3709 48.1855 27.6358H51.0532C50.1192 30.8853 47.1232 33.2618 43.5733 33.2618C39.2771 33.2618 35.793 29.7777 35.793 25.4815C35.793 21.1822 39.2771 17.7012 43.5733 17.7012C47.3625 17.7012 50.5166 20.4062 51.2113 23.9905C51.3067 24.4724 51.3552 24.9715 51.3552 25.4815C51.3552 25.8789 51.3255 26.2685 51.266 26.6486H43.9144C43.1806 26.6486 42.5845 26.0541 42.5845 25.3188C42.5877 24.5835 43.1822 23.989 43.9159 23.989Z" fill="white"/>
</svg>
