<svg width="18" height="18" viewBox="0 0 18 18" fill="none" xmlns="http://www.w3.org/2000/svg">
<g id="nature_people">
<mask id="mask0_0_1628" style="mask-type:alpha" maskUnits="userSpaceOnUse" x="0" y="0" width="18" height="18">
<rect id="Bounding box" y="0.112427" width="17.7751" height="17.7751" fill="#D9D9D9"/>
</mask>
<g mask="url(#mask0_0_1628)">
<path id="nature_people_2" d="M3.33278 8.25937C3.01184 8.25937 2.74645 8.15445 2.5366 7.9446C2.32676 7.73476 2.22183 7.46936 2.22183 7.14842C2.22183 6.82748 2.32676 6.56209 2.5366 6.35224C2.74645 6.1424 3.01184 6.03748 3.33278 6.03748C3.65372 6.03748 3.91911 6.1424 4.12896 6.35224C4.3388 6.56209 4.44373 6.82748 4.44373 7.14842C4.44373 7.46936 4.3388 7.73476 4.12896 7.9446C3.91911 8.15445 3.65372 8.25937 3.33278 8.25937ZM2.22183 16.4063V12.7032H1.4812V9.74063C1.4812 9.53079 1.55218 9.35489 1.69413 9.21293C1.83609 9.07098 2.01199 9 2.22183 9H4.44373C4.65357 9 4.82947 9.07098 4.97143 9.21293C5.11338 9.35489 5.18436 9.53079 5.18436 9.74063V12.7032H4.44373V14.925H10.3688V11.2219H9.07267C8.19626 11.2219 7.45254 10.9164 6.84152 10.3054C6.2305 9.69434 5.92499 8.95062 5.92499 8.07421C5.92499 7.41999 6.10089 6.83674 6.45269 6.32447C6.80449 5.8122 7.25812 5.43263 7.8136 5.18575C7.94938 4.3834 8.32278 3.70757 8.9338 3.15827C9.54482 2.60897 10.27 2.33432 11.1094 2.33432C11.9488 2.33432 12.674 2.60897 13.285 3.15827C13.896 3.70757 14.2694 4.3834 14.4052 5.18575C14.9607 5.43263 15.4143 5.8122 15.7661 6.32447C16.1179 6.83674 16.2938 7.41999 16.2938 8.07421C16.2938 8.95062 15.9883 9.69434 15.3773 10.3054C14.7663 10.9164 14.0226 11.2219 13.1461 11.2219H11.85V14.925H15.5532V16.4063H2.22183ZM9.07267 9.74063H13.1461C13.6152 9.74063 14.0102 9.58016 14.3312 9.25922C14.6521 8.93828 14.8126 8.54328 14.8126 8.07421C14.8126 7.74093 14.7231 7.4385 14.5441 7.16694C14.3651 6.89537 14.1213 6.6917 13.8127 6.55592L13.035 6.22263L12.924 5.40794C12.8499 4.95122 12.6431 4.57164 12.3037 4.26922C11.9642 3.96679 11.5661 3.81558 11.1094 3.81558C10.6527 3.81558 10.2546 3.96679 9.91514 4.26922C9.57568 4.57164 9.36892 4.95122 9.29486 5.40794L9.18376 6.22263L8.4061 6.55592C8.09751 6.6917 7.85371 6.89537 7.67473 7.16694C7.49574 7.4385 7.40625 7.74093 7.40625 8.07421C7.40625 8.54328 7.56672 8.93828 7.88766 9.25922C8.2086 9.58016 8.6036 9.74063 9.07267 9.74063Z" fill="#BDBDBD"/>
</g>
</g>
</svg>
