<svg width="auto" height="auto" viewBox="0 0 17 18" fill="none" xmlns="http://www.w3.org/2000/svg">
<g id="restaurant">
<mask id="mask0_0_1623" style="mask-type:alpha" maskUnits="userSpaceOnUse" x="0" y="0" width="17" height="18">
<rect id="Bounding box" x="0.524048" y="0.774048" width="16.4519" height="16.4519" fill="#D9D9D9"/>
</mask>
<g mask="url(#mask0_0_1623)">
<path id="restaurant_2" d="M5.32248 15.855V9.58268C4.73981 9.42273 4.25139 9.10283 3.85723 8.62299C3.46307 8.14314 3.26599 7.58332 3.26599 6.94352V2.14505H4.63698V6.94352H5.32248V2.14505H6.69347V6.94352H7.37897V2.14505H8.74996V6.94352C8.74996 7.58332 8.55288 8.14314 8.15872 8.62299C7.76456 9.10283 7.27614 9.42273 6.69347 9.58268V15.855H5.32248ZM12.1774 15.855V10.371H10.121V5.57253C10.121 4.62426 10.4551 3.81595 11.1235 3.14759C11.7918 2.47923 12.6002 2.14505 13.5484 2.14505V15.855H12.1774Z" fill="#BDBDBD"/>
</g>
</g>
</svg>
