<svg width="44" height="44" viewBox="0 0 44 44" fill="none" xmlns="http://www.w3.org/2000/svg">
<rect x="0.414124" y="0.314941" width="43.3114" height="43.3114" rx="21.6557" fill="#C33A00"/>
<mask id="mask0_1_2549" style="mask-type:alpha" maskUnits="userSpaceOnUse" x="7" y="7" width="30" height="30">
<rect x="7.87598" y="7.77679" width="28.3877" height="28.3877" fill="#D9D9D9"/>
</mask>
<g mask="url(#mask0_1_2549)">
<path d="M14.9729 19.605H22.0698V13.6909H14.9729V19.605ZM12.6072 32.616V13.6909C12.6072 13.0403 12.8389 12.4834 13.3021 12.0202C13.7654 11.5569 14.3223 11.3253 14.9729 11.3253H22.0698C22.7204 11.3253 23.2773 11.5569 23.7405 12.0202C24.2038 12.4834 24.4354 13.0403 24.4354 13.6909V21.9706H25.914C26.4857 21.9706 26.9736 22.1727 27.3777 22.5768C27.7818 22.981 27.9839 23.4689 27.9839 24.0406V29.5111C27.9839 29.8463 28.1219 30.1518 28.3979 30.4278C28.6739 30.7038 28.9794 30.8418 29.3146 30.8418C29.6694 30.8418 29.9799 30.7038 30.2461 30.4278C30.5122 30.1518 30.6453 29.8463 30.6453 29.5111V18.4222H30.3495C30.0144 18.4222 29.7335 18.3088 29.5068 18.0821C29.2801 17.8554 29.1667 17.5745 29.1667 17.2394V14.8737H29.7581V13.0995H30.941V14.8737H32.1238V13.0995H33.3066V14.8737H33.898V17.2394C33.898 17.5745 33.7847 17.8554 33.5579 18.0821C33.3312 18.3088 33.0503 18.4222 32.7152 18.4222H32.4195V29.5111C32.4195 30.3391 32.1189 31.0636 31.5176 31.6846C30.9163 32.3055 30.182 32.616 29.3146 32.616C28.4669 32.616 27.7375 32.3055 27.1264 31.6846C26.5152 31.0636 26.2097 30.3391 26.2097 29.5111V24.0406C26.2097 23.942 26.185 23.8681 26.1357 23.8188C26.0865 23.7695 26.0125 23.7449 25.914 23.7449H24.4354V32.616H12.6072ZM17.9299 30.2504L20.887 25.5191H19.1128V21.9706L16.1557 26.7019H17.9299V30.2504Z" fill="white"/>
</g>
</svg>
