<svg width="38" height="39" viewBox="0 0 38 39" fill="none" xmlns="http://www.w3.org/2000/svg">
<g id="Group 37">
<g id="Upload Icon">
<circle id="Ellipse 3" cx="19" cy="19.6039" r="18.6992" fill="#333333"/>
<g id="upload_file">
<mask id="mask0_0_1641" style="mask-type:alpha" maskUnits="userSpaceOnUse" x="7" y="8" width="24" height="23">
<rect id="Bounding box" x="7.60596" y="8.20973" width="22.7881" height="22.7881" fill="#333333"/>
</mask>
<g mask="url(#mask0_0_1641)">
<path id="upload_file_2" d="M18.0505 26.2502H19.9495V22.286L21.4687 23.8052L22.798 22.4522L19 18.6541L15.2019 22.4522L16.555 23.7815L18.0505 22.286V26.2502ZM13.3029 29.0987C12.7807 29.0987 12.3338 28.9129 11.9622 28.5413C11.59 28.1691 11.4039 27.7219 11.4039 27.1997V12.0076C11.4039 11.4854 11.59 11.0382 11.9622 10.666C12.3338 10.2944 12.7807 10.1086 13.3029 10.1086H20.899L26.596 15.8056V27.1997C26.596 27.7219 26.4102 28.1691 26.0386 28.5413C25.6664 28.9129 25.2192 29.0987 24.697 29.0987H13.3029ZM19.9495 16.7551V12.0076H13.3029V27.1997H24.697V16.7551H19.9495Z" fill="#828282"/>
</g>
</g>
</g>
</g>
</svg>
